<svg width="84" height="23" viewBox="0 0 84 23" fill="none" xmlns="http://www.w3.org/2000/svg">
<g clip-path="url(#clip0_3_190)">
<path d="M23.9523 0.319984H25.6127V22.8524H23.9523V0.319984Z" fill="#ED145B"/>
<path d="M6.34705 11.1033H14.4526V12.6484H6.34705V11.1033Z" fill="#ED145B"/>
<path d="M0.146301 0.319984V22.8525H1.80668V12.6484H1.80888V11.1032H1.80683V1.86491H19.0245V0.319984" fill="#ED145B"/>
<path d="M75.551 0.232985H62.3197V22.7655H63.9801V14.3639H63.9922V12.8193H63.9802V1.77835H75.4234C79.4471 1.77835 82.1932 3.64518 82.1932 7.2181V7.28268C82.1932 10.63 79.383 12.8192 75.2316 12.8192H69.9949V14.3639H75.1358C79.798 14.3639 83.8539 11.9176 83.8539 7.18595V7.12166C83.8539 2.77606 80.4687 0.233132 75.5508 0.233132" fill="#ED145B"/>
<path d="M52.6594 12.8193L44.9075 0.147459H43.3108L29.503 22.8409H31.2274L44.0775 1.98243L50.7755 12.8192" fill="#ED145B"/>
<path d="M55.2099 16.9887H53.3525L56.9698 22.8407H58.7896" fill="#ED145B"/>
</g>
<defs>
<clipPath id="clip0_3_190">
<rect width="84" height="23" fill="white"/>
</clipPath>
</defs>
</svg>
