<svg width="144" height="39" viewBox="0 0 144 39" fill="none" xmlns="http://www.w3.org/2000/svg">
<g clip-path="url(#clip0_2027_401)">
<path d="M41.0612 0.542587H43.9075V38.7497H41.0612V0.542587Z" fill="#ED145B"/>
<path d="M10.8806 18.8274H24.7759V21.4473H10.8806V18.8274Z" fill="#ED145B"/>
<path d="M0.250732 0.542587V38.75H3.0971V21.4473H3.10086V18.8272H3.09735V3.16224H32.6133V0.542587" fill="#ED145B"/>
<path d="M129.516 0.395065H106.834V38.6024H109.68V24.3563H109.701V21.7371H109.68V3.01547H129.297C136.195 3.01547 140.903 6.18096 140.903 12.2394V12.3489C140.903 18.0248 136.085 21.7368 128.968 21.7368H119.991V24.3563H128.804C136.797 24.3563 143.749 20.2081 143.749 12.1849V12.0759C143.749 4.70723 137.946 0.395315 129.516 0.395315" fill="#ED145B"/>
<path d="M90.2732 21.7371L76.9843 0.250046H74.247L50.5765 38.7302H53.5327L75.5614 3.36152L87.0436 21.7369" fill="#ED145B"/>
<path d="M94.6456 28.8069H91.4614L97.6625 38.73H100.782" fill="#ED145B"/>
</g>
<defs>
<clipPath id="clip0_2027_401">
<rect width="144" height="39" fill="white"/>
</clipPath>
</defs>
</svg>
